<?xml version="1.0" encoding="UTF-8"?>
<svg width="14px" height="15px" viewBox="0 0 14 15" version="1.1" xmlns="http://www.w3.org/2000/svg" xmlns:xlink="http://www.w3.org/1999/xlink">
<path d="M13.8274932,12.9763507 C13.7977671,13.5079671 13.3654932,13.9546247 12.8476849,13.9947068 C12.2560411,14.0407342 11.7436027,13.6878575 11.6521233,13.127474 C11.592863,12.7655836 11.6066712,12.3919945 11.5713836,12.0253096 C11.2476575,8.67048767 9.68080822,6.04002192 6.90650685,4.14503562 C5.1960137,2.97670685 3.27954795,2.41536438 1.20678082,2.38832329 C0.449054795,2.37835068 -0.0396027397,1.88451507 0.0025890411,1.18643288 C0.0351917808,0.647720548 0.470150685,0.165967123 1.00963014,0.182268493 C1.80245205,0.206432877 2.6069726,0.230213699 3.38234247,0.379610959 C7.32458904,1.13829589 10.2826164,3.29832329 12.2658219,6.78087123 C13.0724521,8.19736438 13.5520959,9.73141918 13.7394658,11.352926 C13.7849178,11.747611 13.8119589,12.1445973 13.8476301,12.5406247 C13.8286438,12.6869534 13.8355479,12.8321315 13.8274932,12.9763507 Z" id="Fill-1" mask="url(#mask-2)"></path>
<g id="Group-6" transform="translate(0.000000, 5.000000)">
  <path d="M1.46328261,0.21236087 C4.4321087,0.447534783 6.64395652,1.84546957 8.01978261,4.50673043 C8.55763043,5.54740435 8.7888913,6.66927391 8.80806522,7.83614348 C8.81823913,8.45596957 8.35943478,8.96075217 7.76367391,8.99753478 C7.13113043,9.03646957 6.61167391,8.6211 6.56119565,7.98875217 C6.50445652,7.2804913 6.44713043,6.57555652 6.16676087,5.91288261 C5.36165217,4.00977391 3.94473913,2.8701 1.9031087,2.52496957 C1.60591304,2.47468696 1.30030435,2.47801304 1.00036957,2.44201304 C0.361956522,2.36512174 -0.0446086957,1.85407826 0.0052826087,1.20373043 C0.0495,0.627534783 0.565434783,0.18183913 1.17586957,0.194556522 C1.27173913,0.196513043 1.36741304,0.206295652 1.46328261,0.21236087" id="Fill-4" mask="url(#mask-4)"></path>
</g>
<path d="M1.50208224,11.0000238 C2.31751508,11.0046955 3.0036213,11.6933478 2.99998562,12.5031199 C2.99652306,13.3172176 2.30695427,14.0034475 1.49619589,13.999987 C0.679897417,13.9966994 -0.00465065658,13.3090853 2.3799159e-05,12.4972369 C0.0046982549,11.6795056 0.690977609,10.995352 1.50208224,11.0000238" id="Fill-7"></path>
</svg>
