<svg width="140" height="140" viewBox="0 0 14 14" version="1.1" xmlns="http://www.w3.org/2000/svg" xmlns:xlink="http://www.w3.org/1999/xlink">

<g transform="translate(3578 606)">

  <clipPath id="clip-0" clip-rule="evenodd">
    <path d="M -4299 -951L -2899 -951L -2899 1250L -4299 1250L -4299 -951Z"/>
  </clipPath>

<g clip-path="url(#clip-0)">
  <use xlink:href="#path0_fill" transform="translate(-4299 -951)" fill=""/>
  <use xlink:href="#path1_fill" transform="translate(-3996 -623)" fill=""/>
  <use xlink:href="#path2_fill" transform="translate(-3598.27 -1630)" fill="" fill-opacity="0.01"/>
  <use xlink:href="#path3_stroke_2x" transform="translate(-3598.27 -1618)" fill=""/>
  <use xlink:href="#path5_fill" transform="translate(-3578 -606)"/>
</g>
</g>

<defs>

<path id="path0_fill" fill-rule="evenodd" d="M 0 0L 1400 0L 1400 1968L 0 1968L 0 0Z"/>
<path id="path1_fill" fill-rule="evenodd" d="M 0 5C 0 2.23858 2.23858 0 5 0L 1019 0C 1021.76 0 1024 2.23858 1024 5L 1024 44C 1024 46.7614 1021.76 49 1019 49L 5 49C 2.23858 49 0 46.7614 0 44L 0 5Z"/>
<path id="path2_fill" fill-rule="evenodd" d="M 3.80384 1.99992L 131.232 1.99992C 132.633 1.99992 133.768 3.7908 133.768 5.99999L 133.768 31.9999C 133.768 34.2091 132.633 36 131.232 36L 3.80384 36C 2.40324 36 1.26781 34.2091 1.26781 31.9999L 1.26781 5.99999C 1.26781 3.7908 2.40324 1.99992 3.80384 1.99992Z"/>
<path id="path3_stroke_2x" d="M 3.80384 2.99992L 131.232 2.99992L 131.232 0.999924L 3.80384 0.999924L 3.80384 2.99992ZM 131.232 2.99992C 131.47 2.99992 131.83 3.15409 132.181 3.70692C 132.523 4.24744 132.768 5.05548 132.768 5.99999L 134.768 5.99999C 134.768 4.73531 134.445 3.54332 133.87 2.6361C 133.302 1.7412 132.395 0.999924 131.232 0.999924L 131.232 2.99992ZM 132.768 5.99999L 132.768 31.9999L 134.768 31.9999L 134.768 5.99999L 132.768 5.99999ZM 132.768 31.9999C 132.768 32.9444 132.523 33.7524 132.181 34.293C 131.83 34.8458 131.47 35 131.232 35L 131.232 37C 132.395 37 133.302 36.2587 133.87 35.3638C 134.445 34.4566 134.768 33.2646 134.768 31.9999L 132.768 31.9999ZM 131.232 35L 3.80384 35L 3.80384 37L 131.232 37L 131.232 35ZM 3.80384 35C 3.56583 35 3.20566 34.8457 2.85517 34.2929C 2.51248 33.7524 2.26781 32.9444 2.26781 31.9999L 0.267813 31.9999C 0.267813 33.2646 0.590859 34.4566 1.16604 35.3638C 1.73341 36.2587 2.64125 37 3.80384 37L 3.80384 35ZM 2.26781 31.9999L 2.26781 5.99999L 0.267813 5.99999L 0.267813 31.9999L 2.26781 31.9999ZM 2.26781 5.99999C 2.26781 5.0555 2.51248 4.24748 2.85517 3.70696C 3.20565 3.15414 3.56582 2.99992 3.80384 2.99992L 3.80384 0.999924C 2.64126 0.999924 1.73341 1.74114 1.16604 2.63606C 0.590858 3.54328 0.267813 4.73529 0.267813 5.99999L 2.26781 5.99999Z"/>
<path id="path5_fill" fill-rule="evenodd" d="M 12.4706 12.8349C 12.1244 12.8077 11.7729 12.8087 11.4265 12.8346C 11.1449 12.8557 11.0716 12.7691 11.0756 12.4865C 11.0929 11.3055 11.0849 10.1242 11.0823 8.94291C 11.0803 8.03525 10.6238 7.57928 9.70949 7.57774C 7.89181 7.57455 6.07414 7.57437 4.25647 7.57783C 3.34537 7.57955 2.89104 8.0357 2.88877 8.94446C 2.88595 10.0955 2.87759 11.2466 2.89486 12.3973C 2.89958 12.7119 2.8565 12.8724 2.4867 12.8361C 2.06818 12.7951 1.50098 12.9746 1.25977 12.7619C 0.980396 12.5154 1.17607 11.9381 1.17498 11.5057C 1.16707 8.21935 1.18016 4.93297 1.15889 1.64678C 1.15616 1.22879 1.27768 1.14892 1.65884 1.1671C 2.32384 1.1989 2.99192 1.19127 3.65764 1.16919C 3.96528 1.15892 4.07471 1.23307 4.06716 1.56282C 4.04462 2.54663 4.05508 3.53135 4.06026 4.51571C 4.06489 5.3884 4.50368 5.82764 5.37252 5.83101C 6.46303 5.83519 7.55373 5.83564 8.64424 5.83073C 9.44411 5.82719 9.90688 5.36186 9.91052 4.56015C 9.91488 3.56597 9.91152 2.57171 9.91152 1.58535C 10.8383 2.47857 11.7403 3.35316 12.6504 4.21931C 12.7875 4.34988 12.812 4.49036 12.8117 4.66373C 12.8085 7.26861 12.8053 9.87339 12.8158 12.4783C 12.8169 12.7502 12.7624 12.8577 12.4706 12.8349ZM 4.3521 12.8342C 5.22885 12.8197 6.10615 12.8286 6.98318 12.8286C 7.84512 12.8286 8.70733 12.8157 9.56881 12.8358C 9.85391 12.8424 9.92017 12.7578 9.91635 12.4826C 9.90045 11.3489 9.90354 10.2147 9.91444 9.08097C 9.9169 8.83172 9.855 8.74085 9.58753 8.74267C 7.84866 8.75412 6.1096 8.75476 4.37064 8.74222C 4.09617 8.74022 4.05082 8.84044 4.05309 9.08278C 4.06391 10.2318 4.06418 11.3809 4.05273 12.5299C 4.05046 12.7637 4.11007 12.8382 4.3521 12.8342ZM 5.55945 1.16917C 6.527 1.18671 7.49518 1.18126 8.46309 1.17181C 8.67167 1.16981 8.75201 1.21769 8.74938 1.4445C 8.73756 2.42722 8.73729 3.41031 8.74947 4.39303C 8.75228 4.62428 8.66395 4.66481 8.45937 4.6629C 7.49146 4.65427 6.52346 4.65236 5.55564 4.66399C 5.32552 4.66681 5.23618 4.61483 5.24582 4.3665C 5.26508 3.86818 5.25154 3.36869 5.25154 2.86974C 5.25145 2.41604 5.26345 1.96198 5.24663 1.50892C 5.23773 1.26858 5.2829 1.16426 5.55945 1.16917ZM 13.6035 3.42205C 12.5672 2.40389 11.541 1.37528 10.5209 0.340851C 10.2938 0.110505 10.0559 -0.0012614 9.72374 1.07365e-05C 6.92371 0.0106421 4.12368 0.00482667 1.32365 0.00673487C 0.418452 0.00737093 0.00175126 0.431082 0.000933309 1.34684C -0.000520828 3.22323 0.000569774 5.09972 0.000569774 6.97611C 0.000569774 8.88277 -0.00106613 10.7895 0.00120596 12.6962C 0.00229656 13.5698 0.433993 13.9984 1.31602 13.9988C 5.09986 14.0005 8.88371 14.0003 12.6676 13.9989C 13.5348 13.9986 13.9949 13.5497 13.9957 12.6993C 13.9981 9.93001 13.9936 7.16075 14 4.39159C 14.0009 4.00468 13.8837 3.69737 13.6035 3.42205Z"/>
</defs>
</svg>
