<svg width="16" height="15" viewBox="0 0 16 15" version="1.1" xmlns="http://www.w3.org/2000/svg" xmlns:xlink="http://www.w3.org/1999/xlink">
  <path id="path0_fill"  d="M 11.6249 13.1663L 7.99988 11.2854L 4.36549 13.1663L 5.06723 9.18704L 2.12501 6.37987L 6.1828 5.79392L 7.99988 2.1833L 9.81719 5.79392L 13.875 6.37987L 10.9326 9.18704L 11.6249 13.1663ZM 15.4614 5.378L 10.6344 4.68806L 8.47113 0.387348C 8.34927 0.129121 8.19213 6.91414e-06 7.99988 6.91414e-06C 7.80766 6.91414e-06 7.65051 0.129121 7.52888 0.387348L 5.36536 4.68806L 0.538435 5.378C 0.179468 5.43467 -5.60284e-06 5.57972 -5.60284e-06 5.81282C -5.60284e-06 5.94522 0.0801646 6.09634 0.240285 6.26652L 3.74031 9.6125L 2.91329 14.3383C 2.90054 14.4266 2.89416 14.4896 2.89416 14.5274C 2.89416 14.6597 2.92797 14.7715 2.99516 14.863C 3.06238 14.9542 3.1636 15 3.29819 15C 3.41345 15 3.54146 14.9622 3.68267 14.8865L 7.99988 12.6559L 12.3171 14.8865C 12.4517 14.9622 12.5799 15 12.7018 15C 12.9644 15 13.0961 14.8425 13.0961 14.5274C 13.0961 14.4455 13.0929 14.3824 13.0865 14.3383L 12.2595 9.6125L 15.7499 6.26652C 15.9164 6.10258 16 5.95145 16 5.81282C 16 5.57972 15.8203 5.43467 15.4614 5.378Z"/>
</svg>
